<svg version="1.1" id="Layer_1" xmlns="http://www.w3.org/2000/svg" xmlns:xlink="http://www.w3.org/1999/xlink" x="0px" y="0px"
	 width="100%" viewBox="0 0 1024 1024" enable-background="new 0 0 1024 1024" xml:space="preserve">
<path fill="#000000" opacity="1.000000" stroke="none" 
	d="
M874.599731,524.771484 
	C879.564819,545.130493 867.663757,560.362183 847.088501,560.364563 
	C631.431152,560.389709 415.773865,560.376954 200.116547,560.447449 
	C191.910233,560.450134 184.754227,558.250854 178.514328,552.899170 
	C169.425903,545.104492 167.315887,535.170105 171.049744,524.417053 
	C174.644272,514.065308 182.402344,507.957855 193.650085,506.615814 
	C207.599701,504.951355 221.587509,506.169556 235.551636,505.764923 
	C242.843811,505.553589 243.673965,504.682556 240.890060,497.947540 
	C230.321213,472.378601 226.040207,445.665466 225.592331,418.135193 
	C225.188354,393.302856 225.936981,368.603882 231.578415,344.286133 
	C232.340622,341.000610 230.442047,338.940552 228.626831,336.756592 
	C220.529861,327.014862 212.968079,316.881439 205.998383,306.295959 
	C192.192795,285.328217 184.819061,262.030731 180.641037,237.508621 
	C178.219254,223.294281 178.467361,208.980164 178.735641,194.678070 
	C179.033722,178.786942 188.856018,165.780807 202.776901,162.260513 
	C207.698669,161.015915 212.878189,160.738922 217.619019,162.122726 
	C243.956497,169.810455 268.976959,180.598053 291.794861,195.955994 
	C301.382721,202.409256 304.618927,212.328339 303.261627,223.513718 
	C301.719604,236.221741 284.545410,247.554382 271.695068,244.893188 
	C262.380829,242.964279 254.329254,238.319839 246.161270,233.781265 
	C243.610092,232.363678 240.749252,228.977356 237.713089,231.344193 
	C234.438644,233.896744 237.036591,237.582336 237.933929,240.596756 
	C242.740738,256.744080 250.726593,271.281891 261.097565,284.479279 
	C265.465149,290.037109 271.649017,292.972900 278.456970,294.619934 
	C281.037384,295.244202 283.658600,295.786469 286.149811,296.677582 
	C296.364838,300.331543 303.655396,309.505402 298.860321,322.296936 
	C295.009674,332.569061 289.949188,342.421478 287.405304,353.163025 
	C283.720337,368.722900 282.035706,384.511353 280.925415,400.485291 
	C279.556976,420.173187 281.414886,439.416534 286.514771,458.254730 
	C290.594543,473.324738 295.804016,488.105713 304.024872,501.645233 
	C306.009674,504.914215 308.122681,505.754822 311.608826,505.751862 
	C353.273376,505.716431 394.938080,505.853333 436.602722,505.841919 
	C534.763062,505.814972 632.923401,505.703217 731.083679,505.763611 
	C735.637756,505.766418 738.101257,504.528931 740.299500,500.279816 
	C750.870667,479.846161 758.634644,458.415466 761.261230,435.617065 
	C764.537354,407.181610 763.675415,378.836487 754.150696,351.342682 
	C750.776733,341.603424 747.957092,331.684937 744.603638,321.928284 
	C742.103088,314.652954 747.116211,309.031403 751.851135,304.483368 
	C757.231140,299.315796 763.482849,294.963623 771.202087,293.658722 
	C779.633545,292.233429 785.675110,287.484467 790.392395,280.535706 
	C800.256836,266.004944 809.185730,251.054993 813.078369,233.645416 
	C813.328247,232.527939 813.980286,231.466446 813.150208,230.264587 
	C810.970886,229.377396 809.442383,230.909058 807.713989,231.789719 
	C798.828674,236.317215 790.273926,241.528992 780.574341,244.335938 
	C767.373535,248.156082 750.580261,240.826187 744.652039,228.505325 
	C739.680054,218.171860 743.830750,203.492935 753.632202,196.498016 
	C766.467163,187.338287 780.759216,180.909164 795.132629,174.748566 
	C806.122620,170.038116 817.198242,165.533234 828.804871,162.295883 
	C854.942566,155.005539 870.195435,176.391922 870.578491,195.271820 
	C871.119507,221.933655 867.218872,247.633530 858.232544,272.611938 
	C852.426758,288.749847 843.179016,303.001404 833.059814,316.715698 
	C827.513062,324.233063 821.459045,331.318542 814.813965,337.889771 
	C812.017578,340.655060 811.024658,343.555359 811.913635,347.749084 
	C817.209717,372.734070 819.889343,398.084320 818.133484,423.552307 
	C816.345703,449.482727 811.407532,474.946411 801.583313,499.231812 
	C799.217896,505.079163 799.641602,505.684052 806.131531,505.691101 
	C819.964233,505.706116 833.797180,505.619171 847.629639,505.670868 
	C860.038391,505.717224 869.895447,512.659729 874.599731,524.771484 
z"/>
<path fill="#000000" opacity="1.000000" stroke="none" 
	d="
M570.594604,131.071014 
	C608.926025,136.154938 644.971130,147.352463 679.486145,163.605438 
	C685.503845,166.439117 691.140198,170.091675 697.187256,172.852036 
	C709.593201,178.515030 716.689026,195.483505 713.201111,208.333832 
	C709.263794,222.839478 703.268433,236.590134 696.483154,249.947098 
	C691.438110,259.878479 682.079590,265.514954 672.984253,271.060577 
	C651.543335,284.133575 627.959717,291.451721 603.504700,296.422974 
	C588.173706,299.539520 572.728333,301.325928 557.136169,302.534271 
	C546.672424,303.345184 536.172302,303.964111 525.755920,303.853638 
	C503.186981,303.614258 480.615570,303.095856 458.165833,299.707733 
	C439.377411,296.872192 420.972778,292.974915 402.960815,286.861237 
	C368.460907,275.151184 345.415466,252.144424 332.948669,218.027191 
	C329.846985,209.539062 328.985840,201.331390 331.601440,192.706482 
	C334.166321,184.248703 338.786560,177.647766 346.738556,173.177322 
	C381.147797,153.833267 417.919067,141.106964 456.579224,133.732315 
	C472.401123,130.714218 488.478088,129.659546 504.544159,128.478134 
	C513.533386,127.817116 522.490479,127.580711 531.461914,127.694748 
	C544.426514,127.859550 557.268677,129.772522 570.594604,131.071014 
M413.095703,228.321259 
	C428.631226,236.678543 445.256134,241.986267 462.601868,244.548737 
	C485.803741,247.976334 509.140778,249.451065 532.663879,248.134171 
	C553.553162,246.964722 574.396790,245.943008 594.765198,240.623291 
	C612.376892,236.023544 629.478088,230.178055 644.958923,220.342514 
	C646.958618,219.072083 649.548523,218.224655 650.144226,214.854156 
	C640.410522,209.904404 630.485107,205.310089 620.233398,201.491119 
	C595.320923,192.210693 569.496948,187.382767 543.026733,185.128052 
	C519.995972,183.166290 497.182037,184.693176 474.432404,187.699112 
	C454.912842,190.278259 436.173096,196.090378 417.939484,203.467117 
	C411.312408,206.148239 404.558960,208.580383 398.317108,212.126053 
	C393.505035,214.859558 393.491516,217.094757 398.157227,219.791946 
	C402.907013,222.537750 407.677917,225.247040 413.095703,228.321259 
z"/>
<path fill="#000000" opacity="1.000000" stroke="none" 
	d="
M390.959351,657.814941 
	C380.513184,659.158081 370.386139,659.348938 360.247192,659.329590 
	C337.423218,659.286133 314.599182,659.260681 291.775177,659.243286 
	C284.086334,659.237427 283.347229,659.946655 283.346558,667.362610 
	C283.341431,722.840149 283.409576,778.317932 283.243195,833.794983 
	C283.228119,838.812439 284.990784,839.924011 289.601532,839.894348 
	C322.086945,839.685303 354.573761,839.665161 387.060150,839.657776 
	C405.172150,839.653687 414.739899,849.554626 414.324951,868.843750 
	C414.026459,882.716492 401.331604,893.468384 386.668304,893.415283 
	C344.685822,893.263306 302.702393,893.404968 260.719574,893.320984 
	C241.361969,893.282288 227.702805,879.581055 227.689056,860.184326 
	C227.634689,783.382080 227.641495,706.579895 227.674179,629.777649 
	C227.681168,613.376526 238.546051,603.864868 254.830154,604.388184 
	C274.135773,605.008728 293.473694,604.650635 312.797668,604.667542 
	C337.787506,604.689392 362.784943,604.283386 387.764923,604.777283 
	C407.652100,605.170471 414.288055,613.956421 414.960022,629.106750 
	C415.512817,641.569641 409.776398,653.847961 392.293701,657.444702 
	C391.968079,657.511658 391.646606,657.598816 390.959351,657.814941 
z"/>
<path fill="#000000" opacity="1.000000" stroke="none" 
	d="
M768.652832,727.999878 
	C768.698303,706.670227 768.617065,685.838989 768.891846,665.012329 
	C768.950134,660.590271 767.650940,659.234009 763.277344,659.257568 
	C735.783264,659.406006 708.287659,659.261475 680.793274,659.381348 
	C674.888245,659.407043 669.097351,658.678223 663.539612,657.040955 
	C652.431641,653.768494 646.037842,645.732056 643.722778,634.695618 
	C641.523499,624.210632 645.784119,615.727844 653.792419,609.200378 
	C658.322998,605.507568 663.960144,604.610535 669.786377,604.618774 
	C709.612854,604.674866 749.439636,604.692566 789.266113,604.613281 
	C795.228210,604.601440 801.128113,603.836548 806.934998,606.229431 
	C815.413757,609.723328 820.575134,615.658142 821.339600,624.860901 
	C823.011230,644.984314 821.856323,665.153992 821.996094,685.301758 
	C822.169434,710.295532 822.342468,735.298828 821.860352,760.285400 
	C821.285217,790.095154 822.777588,819.899841 821.671082,849.709290 
	C821.481323,854.821594 822.289368,859.993225 821.705200,865.153320 
	C819.560852,884.096436 807.758301,892.730896 790.927551,893.086121 
	C750.785339,893.933289 710.609985,893.649536 670.455017,893.197205 
	C657.046326,893.046143 645.555603,885.845581 643.374207,870.363586 
	C641.121155,854.373230 653.336426,839.694519 669.689453,839.655884 
	C700.184204,839.583801 730.679321,839.631104 761.174255,839.620544 
	C768.519104,839.618042 768.650085,839.496033 768.652039,831.983521 
	C768.661011,797.489014 768.654236,762.994446 768.652832,727.999878 
z"/>
<path fill="#000000" opacity="1.000000" stroke="none" 
	d="
M519.000122,839.652954 
	C533.991760,839.642578 548.485291,839.498657 562.973877,839.703552 
	C567.341003,839.765320 568.889893,838.333862 568.730896,833.957581 
	C568.458923,826.471863 568.480835,818.963135 568.729736,811.475708 
	C568.863037,807.466858 567.273926,806.248047 563.474854,806.290588 
	C550.983704,806.430298 538.488953,806.443970 525.997437,806.320557 
	C511.865173,806.180969 500.644379,797.400635 498.443665,783.684875 
	C496.836456,773.667847 500.959808,764.976868 508.715759,758.573303 
	C514.483093,753.811584 521.453247,751.610596 529.103455,751.643738 
	C551.252686,751.739685 573.397156,751.491516 595.543701,750.935181 
	C609.783875,750.577454 620.801147,759.448364 620.505066,774.950500 
	C619.929443,805.088928 619.891479,835.253967 620.472595,865.391846 
	C620.814148,883.102966 609.167175,893.510925 594.353943,893.417480 
	C586.067505,893.365173 577.780579,893.384827 569.493835,893.382446 
	C536.346252,893.372742 503.198578,893.416931 470.051178,893.334778 
	C457.383087,893.303345 445.458649,884.904419 442.411041,874.193848 
	C438.556519,860.647278 445.275238,847.098572 458.385071,842.199768 
	C462.921082,840.504761 467.613708,839.580200 472.527222,839.610779 
	C487.850983,839.706299 503.175720,839.650391 519.000122,839.652954 
z"/>
<path fill="#000000" opacity="1.000000" stroke="none" 
	d="
M726.863281,410.304626 
	C724.866211,422.669067 711.128601,430.988007 699.239014,431.320007 
	C693.578125,431.478088 687.908997,431.323029 682.243835,431.351349 
	C676.093262,431.382111 675.149353,432.444977 675.148438,438.731750 
	C675.147400,446.208984 675.720337,453.672546 674.488953,461.154724 
	C671.593872,478.746063 653.346924,488.198578 637.331970,480.238831 
	C627.576721,475.390198 622.704773,467.535767 622.657288,456.671936 
	C622.629578,450.340179 622.505798,444.004089 622.690918,437.677734 
	C622.822449,433.184662 620.904053,431.304169 616.469971,431.344360 
	C606.639832,431.433411 596.805054,431.506348 586.977905,431.304047 
	C570.481567,430.964447 559.411133,422.572906 557.228760,406.988953 
	C555.885986,397.399628 561.952087,385.240631 571.230286,380.356537 
	C578.292542,376.638855 585.845825,376.319794 593.567444,376.503723 
	C601.228271,376.686249 608.900818,376.450836 616.557373,376.714905 
	C621.238831,376.876343 622.688049,374.721191 622.700439,370.405487 
	C622.717468,364.436707 622.206055,358.447266 623.719727,352.517731 
	C628.195312,334.986328 645.884888,325.762543 662.186768,332.629578 
	C671.575745,336.584595 674.595337,344.641754 675.258484,353.882080 
	C675.651062,359.352722 675.615051,364.893188 675.250610,370.367615 
	C674.916626,375.385284 677.149414,376.862640 681.716064,376.694519 
	C686.874451,376.504639 692.075989,377.020721 697.205200,376.590973 
	C714.220642,375.165436 730.513306,388.972839 726.863281,410.304626 
z"/>
<path fill="#000000" opacity="1.000000" stroke="none" 
	d="
M337.661682,391.981873 
	C338.866821,384.172119 341.578705,377.515778 346.772186,371.967346 
	C358.543457,359.391632 378.601776,362.702789 385.804382,378.342865 
	C388.717621,384.668793 389.229095,391.458008 390.261566,398.159637 
	C391.811707,408.221130 396.724121,415.561737 406.871826,418.494537 
	C417.812805,421.656616 427.227142,418.545563 435.220947,410.828522 
	C441.650970,404.621124 442.618195,396.355347 443.745392,388.004456 
	C445.357239,376.063080 449.966248,365.909943 462.472687,361.436005 
	C475.320709,356.839905 489.351837,363.222809 494.384308,375.990509 
	C498.561279,386.587830 498.142365,397.469879 496.309967,408.378204 
	C493.016113,427.986084 485.197693,445.609497 469.773254,458.456055 
	C445.273285,478.861298 417.244293,482.418762 387.790680,471.422028 
	C362.042328,461.808716 346.913361,442.121643 339.654144,416.004944 
	C337.500763,408.257599 336.457825,400.431244 337.661682,391.981873 
z"/>
<path fill="#000000" opacity="1.000000" stroke="none" 
	d="
M442.899414,615.064026 
	C448.980225,607.199829 456.643402,604.466919 466.232880,604.528320 
	C510.893280,604.814026 555.558105,604.859802 600.217529,604.509033 
	C610.654907,604.427124 620.191528,613.725342 620.268738,623.949646 
	C620.429871,645.279419 620.527344,666.614380 620.227722,687.941223 
	C620.030945,701.951904 609.488098,711.439941 595.112000,711.362000 
	C580.945068,711.285156 569.062683,700.224792 568.729919,686.605469 
	C568.554993,679.444031 568.387512,672.254272 568.832520,665.115662 
	C569.135925,660.247986 567.231323,659.246521 562.839111,659.266479 
	C532.676208,659.403931 502.512299,659.328186 472.348694,659.334167 
	C466.623077,659.335327 461.109375,658.206177 455.792511,656.172180 
	C437.014313,648.988281 433.956268,629.424561 442.899414,615.064026 
z"/>
<path fill="#000000" opacity="1.000000" stroke="none" 
	d="
M553.857178,704.600464 
	C554.836121,709.774536 554.989502,714.607544 554.111938,719.353821 
	C552.064087,730.430237 541.284729,739.322021 529.807617,739.351807 
	C499.827972,739.429688 469.847626,739.481812 439.868378,739.350647 
	C420.830200,739.267334 407.458099,721.417419 412.719238,703.267761 
	C415.530334,693.570129 427.147980,683.346130 440.542511,685.383606 
	C444.887573,686.044556 449.174835,685.060852 453.490234,685.043945 
	C478.306152,684.946899 503.122498,684.812622 527.938171,684.877502 
	C540.991333,684.911621 550.050537,691.890320 553.857178,704.600464 
z"/>
<path fill="#000000" opacity="1.000000" stroke="none" 
	d="
M668.654053,735.999878 
	C668.373230,723.030457 668.690613,710.567993 668.084717,698.082214 
	C667.142151,678.657654 676.861206,665.770203 694.953674,663.441833 
	C706.663635,661.934814 718.977661,667.729248 720.436279,681.851257 
	C722.358459,700.461914 720.979614,719.091919 721.182861,737.707764 
	C721.316772,749.982300 722.208313,762.285583 720.468750,774.566467 
	C718.378967,789.319702 708.111328,798.449463 693.763489,798.222351 
	C679.277649,797.993103 668.707520,786.579712 668.660645,771.954956 
	C668.622742,760.136719 668.653870,748.318298 668.654053,735.999878 
z"/>
<path fill="#000000" opacity="1.000000" stroke="none" 
	d="
M335.638550,680.054138 
	C342.594299,667.346130 354.982117,661.270813 366.841583,664.464600 
	C377.720917,667.394470 384.765350,676.925476 385.372986,688.880554 
	C386.786591,716.692078 385.878265,744.496399 385.282776,772.298889 
	C384.966705,787.056519 373.983063,797.880798 359.533264,798.217712 
	C346.097992,798.530945 334.535431,787.654602 333.667664,773.524231 
	C332.267883,750.731262 332.812500,727.914429 333.427490,705.112183 
	C333.649994,696.862671 332.403778,688.443237 335.638550,680.054138 
z"/>
</svg>